{
	"asset":{
		"generator":"Khronos glTF Blender I/O v3.5.30",
		"version":"2.0"
	},
	"scene":0,
	"scenes":[
		{
			"name":"Scene",
			"nodes":[
				0,
				1
			]
		}
	],
	"nodes":[
		{
			"extras":{
				"collider":"box"
			},
			"mesh":0,
			"name":"Post-it",
			"rotation":[
				0,
				-0.7071068286895752,
				0,
				0.7071068286895752
			],
			"scale":[
				1.5,
				1.5,
				1.5
			]
		},
		{
			"mesh":1,
			"name":"Push-pin",
			"scale":[
				0.1464921534061432,
				0.1464921534061432,
				0.1464921534061432
			],
			"translation":[
				0,
				0.2853391468524933,
				-1.1565228700637817
			]
		}
	],
	"materials":[
		{
			"doubleSided":true,
			"name":"Post-it",
			"pbrMetallicRoughness":{
				"baseColorFactor":[
					1,
					0.9914986491203308,
					0.5490154027938843,
					1
				],
				"baseColorTexture":{
					"index":0
				},
				"metallicFactor":0
			}
		},
		{
			"doubleSided":true,
			"name":"Push-pin",
			"pbrMetallicRoughness":{
				"baseColorFactor":[
					0.8000000715255737,
					0.004434478469192982,
					0,
					1
				],
				"metallicFactor":0,
				"roughnessFactor":0.35321101546287537
			}
		},
		{
			"doubleSided":true,
			"name":"Metal",
			"pbrMetallicRoughness":{
				"baseColorFactor":[
					0.28120169043540955,
					0.28120169043540955,
					0.28120169043540955,
					1
				],
				"roughnessFactor":0.16972476243972778
			}
		}
	],
	"meshes":[
		{
			"name":"Plane",
			"primitives":[
				{
					"attributes":{
						"POSITION":0,
						"TEXCOORD_0":1,
						"NORMAL":2
					},
					"indices":3,
					"material":0
				}
			]
		},
		{
			"name":"Cylinder",
			"primitives":[
				{
					"attributes":{
						"POSITION":4,
						"TEXCOORD_0":5,
						"NORMAL":6
					},
					"indices":7,
					"material":1
				},
				{
					"attributes":{
						"POSITION":8,
						"TEXCOORD_0":9,
						"NORMAL":10
					},
					"indices":11,
					"material":2
				}
			]
		}
	],
	"textures":[
		{
			"sampler":0,
			"source":0
		}
	],
	"images":[
		{
			"bufferView":4,
			"mimeType":"image/png",
			"name":"White"
		}
	],
	"accessors":[
		{
			"bufferView":0,
			"componentType":5126,
			"count":96,
			"max":[
				1,
				0.06901514530181885,
				1
			],
			"min":[
				-1.002112865447998,
				-0.00040598446503281593,
				-1
			],
			"type":"VEC3"
		},
		{
			"bufferView":1,
			"componentType":5126,
			"count":96,
			"type":"VEC2"
		},
		{
			"bufferView":2,
			"componentType":5126,
			"count":96,
			"type":"VEC3"
		},
		{
			"bufferView":3,
			"componentType":5123,
			"count":252,
			"type":"SCALAR"
		},
		{
			"bufferView":5,
			"componentType":5126,
			"count":166,
			"max":[
				1,
				1.1309248208999634,
				1
			],
			"min":[
				-1,
				-1,
				-1
			],
			"type":"VEC3"
		},
		{
			"bufferView":6,
			"componentType":5126,
			"count":166,
			"type":"VEC2"
		},
		{
			"bufferView":7,
			"componentType":5126,
			"count":166,
			"type":"VEC3"
		},
		{
			"bufferView":8,
			"componentType":5123,
			"count":468,
			"type":"SCALAR"
		},
		{
			"bufferView":9,
			"componentType":5126,
			"count":24,
			"max":[
				0.0639459639787674,
				-0.9179258346557617,
				0.06394689530134201
			],
			"min":[
				-0.0639459639787674,
				-1.8795303106307983,
				-0.06394506245851517
			],
			"type":"VEC3"
		},
		{
			"bufferView":10,
			"componentType":5126,
			"count":24,
			"type":"VEC2"
		},
		{
			"bufferView":11,
			"componentType":5126,
			"count":24,
			"type":"VEC3"
		},
		{
			"bufferView":12,
			"componentType":5123,
			"count":36,
			"type":"SCALAR"
		}
	],
	"bufferViews":[
		{
			"buffer":0,
			"byteLength":1152,
			"byteOffset":0,
			"target":34962
		},
		{
			"buffer":0,
			"byteLength":768,
			"byteOffset":1152,
			"target":34962
		},
		{
			"buffer":0,
			"byteLength":1152,
			"byteOffset":1920,
			"target":34962
		},
		{
			"buffer":0,
			"byteLength":504,
			"byteOffset":3072,
			"target":34963
		},
		{
			"buffer":0,
			"byteLength":90,
			"byteOffset":3576
		},
		{
			"buffer":0,
			"byteLength":1992,
			"byteOffset":3668,
			"target":34962
		},
		{
			"buffer":0,
			"byteLength":1328,
			"byteOffset":5660,
			"target":34962
		},
		{
			"buffer":0,
			"byteLength":1992,
			"byteOffset":6988,
			"target":34962
		},
		{
			"buffer":0,
			"byteLength":936,
			"byteOffset":8980,
			"target":34963
		},
		{
			"buffer":0,
			"byteLength":288,
			"byteOffset":9916,
			"target":34962
		},
		{
			"buffer":0,
			"byteLength":192,
			"byteOffset":10204,
			"target":34962
		},
		{
			"buffer":0,
			"byteLength":288,
			"byteOffset":10396,
			"target":34962
		},
		{
			"buffer":0,
			"byteLength":72,
			"byteOffset":10684,
			"target":34963
		}
	],
	"samplers":[
		{
			"magFilter":9729,
			"minFilter":9987,
			"wrapS":33071,
			"wrapT":33071
		}
	],
	"buffers":[
		{
			"byteLength":10756,
			"uri":"data:application/octet-stream;base64,"
		}
	]
}
