{
    "asset" : {
        "generator" : "Khronos glTF Blender I/O v1.6.16",
        "version" : "2.0"
    },
    "scene" : 0,
    "scenes" : [
        {
            "name" : "Scene",
            "nodes" : [
                0
            ]
        }
    ],
    "nodes" : [
        {
            "mesh" : 0,
            "name" : "knight_black",
            "scale" : [
                0.6499999761581421,
                0.6499999761581421,
                0.6499999761581421
            ]
        }
    ],
    "materials" : [
        {
            "doubleSided" : true,
            "name" : "Black",
            "pbrMetallicRoughness" : {
                "baseColorFactor" : [
                    0.018848516047000885,
                    0.01769496127963066,
                    0.01345010008662939,
                    1
                ],
                "metallicFactor" : 0,
                "roughnessFactor" : 0.38550451397895813
            }
        }
    ],
    "meshes" : [
        {
            "name" : "Cylinder.003",
            "primitives" : [
                {
                    "attributes" : {
                        "POSITION" : 0,
                        "NORMAL" : 1,
                        "TEXCOORD_0" : 2
                    },
                    "indices" : 3,
                    "material" : 0
                }
            ]
        }
    ],
    "accessors" : [
        {
            "bufferView" : 0,
            "componentType" : 5126,
            "count" : 834,
            "max" : [
                1,
                3.213792085647583,
                1
            ],
            "min" : [
                -1,
                0,
                -1.0051090717315674
            ],
            "type" : "VEC3"
        },
        {
            "bufferView" : 1,
            "componentType" : 5126,
            "count" : 834,
            "type" : "VEC3"
        },
        {
            "bufferView" : 2,
            "componentType" : 5126,
            "count" : 834,
            "type" : "VEC2"
        },
        {
            "bufferView" : 3,
            "componentType" : 5123,
            "count" : 3852,
            "type" : "SCALAR"
        }
    ],
    "bufferViews" : [
        {
            "buffer" : 0,
            "byteLength" : 10008,
            "byteOffset" : 0
        },
        {
            "buffer" : 0,
            "byteLength" : 10008,
            "byteOffset" : 10008
        },
        {
            "buffer" : 0,
            "byteLength" : 6672,
            "byteOffset" : 20016
        },
        {
            "buffer" : 0,
            "byteLength" : 7704,
            "byteOffset" : 26688
        }
    ],
    "buffers" : [
        {
            "byteLength" : 34392,
            "uri" : "data:application/octet-stream;base64,"
        }
    ]
}
