{
	"asset":{
		"generator":"Khronos glTF Blender I/O v3.5.30",
		"version":"2.0"
	},
	"extensionsUsed":[
		"KHR_materials_specular",
		"KHR_materials_ior"
	],
	"scene":0,
	"scenes":[
		{
			"name":"Scene",
			"nodes":[
				0
			]
		}
	],
	"nodes":[
		{
			"extras":{
				"collider":"cylinder"
			},
			"mesh":0,
			"name":"Stone",
			"scale":[
				0.9307829737663269,
				0.8924385905265808,
				0.9295396208763123
			]
		}
	],
	"materials":[
		{
			"doubleSided":true,
			"extensions":{
				"KHR_materials_specular":{
					"specularColorFactor":[
						0,
						0,
						0
					]
				},
				"KHR_materials_ior":{
					"ior":1.4500000476837158
				}
			},
			"name":"Stone",
			"pbrMetallicRoughness":{
				"metallicFactor":0,
				"roughnessFactor":0.3499999940395355
			}
		}
	],
	"meshes":[
		{
			"name":"Icosphere.001",
			"primitives":[
				{
					"attributes":{
						"POSITION":0,
						"TEXCOORD_0":1,
						"NORMAL":2
					},
					"indices":3,
					"material":0
				}
			]
		}
	],
	"accessors":[
		{
			"bufferView":0,
			"componentType":5126,
			"count":2698,
			"max":[
				0.42974573373794556,
				0.2016945630311966,
				0.4299231171607971
			],
			"min":[
				-0.42974573373794556,
				-0.2016945630311966,
				-0.43071800470352173
			],
			"type":"VEC3"
		},
		{
			"bufferView":1,
			"componentType":5126,
			"count":2698,
			"type":"VEC2"
		},
		{
			"bufferView":2,
			"componentType":5126,
			"count":2698,
			"type":"VEC3"
		},
		{
			"bufferView":3,
			"componentType":5123,
			"count":8880,
			"type":"SCALAR"
		}
	],
	"bufferViews":[
		{
			"buffer":0,
			"byteLength":32376,
			"byteOffset":0,
			"target":34962
		},
		{
			"buffer":0,
			"byteLength":21584,
			"byteOffset":32376,
			"target":34962
		},
		{
			"buffer":0,
			"byteLength":32376,
			"byteOffset":53960,
			"target":34962
		},
		{
			"buffer":0,
			"byteLength":17760,
			"byteOffset":86336,
			"target":34963
		}
	],
	"buffers":[
		{
			"byteLength":104096,
			"uri":"data:application/octet-stream;base64,"
		}
	]
}
