{
    "asset" : {
        "generator" : "Khronos glTF Blender I/O v1.7.33",
        "version" : "2.0"
    },
    "scene" : 0,
    "scenes" : [
        {
            "name" : "Scene",
            "nodes" : [
                0
            ]
        }
    ],
    "nodes" : [
        {
            "mesh" : 0,
            "name" : "Stone",
            "scale" : [
                0.9307829737663269,
                0.8924385905265808,
                0.9295396208763123
            ]
        }
    ],
    "materials" : [
        {
            "doubleSided" : true,
            "name" : "Stone",
            "pbrMetallicRoughness" : {
                "metallicFactor" : 0,
                "roughnessFactor" : 0.3499999940395355
            }
        }
    ],
    "meshes" : [
        {
            "name" : "Icosphere.001",
            "primitives" : [
                {
                    "attributes" : {
                        "POSITION" : 0,
                        "NORMAL" : 1,
                        "TEXCOORD_0" : 2
                    },
                    "indices" : 3,
                    "material" : 0
                }
            ]
        }
    ],
    "accessors" : [
        {
            "bufferView" : 0,
            "componentType" : 5126,
            "count" : 2698,
            "max" : [
                0.42974573373794556,
                0.2016945630311966,
                0.4299231171607971
            ],
            "min" : [
                -0.42974573373794556,
                -0.2016945630311966,
                -0.43071800470352173
            ],
            "type" : "VEC3"
        },
        {
            "bufferView" : 1,
            "componentType" : 5126,
            "count" : 2698,
            "type" : "VEC3"
        },
        {
            "bufferView" : 2,
            "componentType" : 5126,
            "count" : 2698,
            "type" : "VEC2"
        },
        {
            "bufferView" : 3,
            "componentType" : 5123,
            "count" : 8880,
            "type" : "SCALAR"
        }
    ],
    "bufferViews" : [
        {
            "buffer" : 0,
            "byteLength" : 32376,
            "byteOffset" : 0
        },
        {
            "buffer" : 0,
            "byteLength" : 32376,
            "byteOffset" : 32376
        },
        {
            "buffer" : 0,
            "byteLength" : 21584,
            "byteOffset" : 64752
        },
        {
            "buffer" : 0,
            "byteLength" : 17760,
            "byteOffset" : 86336
        }
    ],
    "buffers" : [
        {
            "byteLength" : 104096,
            "uri" : "data:application/octet-stream;base64,"
        }
    ]
}
