{
    "asset" : {
        "generator" : "Khronos glTF Blender I/O v1.6.16",
        "version" : "2.0"
    },
    "scene" : 0,
    "scenes" : [
        {
            "name" : "Scene",
            "nodes" : [
                0
            ]
        }
    ],
    "nodes" : [
        {
            "mesh" : 0,
            "name" : "Cube",
            "scale" : [
                24,
                1,
                24
            ]
        }
    ],
    "materials" : [
        {
            "doubleSided" : true,
            "name" : "Felt",
            "pbrMetallicRoughness" : {
                "baseColorFactor" : [
                    0.005934420041739941,
                    0.08127384632825851,
                    0.027452273294329643,
                    1
                ],
                "metallicFactor" : 0
            }
        },
        {
            "doubleSided" : true,
            "name" : "Plastic",
            "pbrMetallicRoughness" : {
                "baseColorFactor" : [
                    0.0015474053798243403,
                    0.0015474053798243403,
                    0.0015474053798243403,
                    1
                ],
                "metallicFactor" : 0,
                "roughnessFactor" : 0.6798029541969299
            }
        }
    ],
    "meshes" : [
        {
            "name" : "Cube.001",
            "primitives" : [
                {
                    "attributes" : {
                        "POSITION" : 0,
                        "NORMAL" : 1,
                        "TEXCOORD_0" : 2
                    },
                    "indices" : 3,
                    "material" : 0
                },
                {
                    "attributes" : {
                        "POSITION" : 4,
                        "NORMAL" : 5,
                        "TEXCOORD_0" : 6
                    },
                    "indices" : 7,
                    "material" : 1
                }
            ]
        }
    ],
    "accessors" : [
        {
            "bufferView" : 0,
            "componentType" : 5126,
            "count" : 408,
            "max" : [
                2,
                0.5292165875434875,
                2
            ],
            "min" : [
                -2,
                0,
                -2
            ],
            "type" : "VEC3"
        },
        {
            "bufferView" : 1,
            "componentType" : 5126,
            "count" : 408,
            "type" : "VEC3"
        },
        {
            "bufferView" : 2,
            "componentType" : 5126,
            "count" : 408,
            "type" : "VEC2"
        },
        {
            "bufferView" : 3,
            "componentType" : 5123,
            "count" : 696,
            "type" : "SCALAR"
        },
        {
            "bufferView" : 4,
            "componentType" : 5126,
            "count" : 256,
            "max" : [
                1.873812198638916,
                0.9372572898864746,
                1.8777188062667847
            ],
            "min" : [
                -1.873812198638916,
                0.4721526503562927,
                -1.8777188062667847
            ],
            "type" : "VEC3"
        },
        {
            "bufferView" : 5,
            "componentType" : 5126,
            "count" : 256,
            "type" : "VEC3"
        },
        {
            "bufferView" : 6,
            "componentType" : 5126,
            "count" : 256,
            "type" : "VEC2"
        },
        {
            "bufferView" : 7,
            "componentType" : 5123,
            "count" : 384,
            "type" : "SCALAR"
        }
    ],
    "bufferViews" : [
        {
            "buffer" : 0,
            "byteLength" : 4896,
            "byteOffset" : 0
        },
        {
            "buffer" : 0,
            "byteLength" : 4896,
            "byteOffset" : 4896
        },
        {
            "buffer" : 0,
            "byteLength" : 3264,
            "byteOffset" : 9792
        },
        {
            "buffer" : 0,
            "byteLength" : 1392,
            "byteOffset" : 13056
        },
        {
            "buffer" : 0,
            "byteLength" : 3072,
            "byteOffset" : 14448
        },
        {
            "buffer" : 0,
            "byteLength" : 3072,
            "byteOffset" : 17520
        },
        {
            "buffer" : 0,
            "byteLength" : 2048,
            "byteOffset" : 20592
        },
        {
            "buffer" : 0,
            "byteLength" : 768,
            "byteOffset" : 22640
        }
    ],
    "buffers" : [
        {
            "byteLength" : 23408,
            "uri" : "data:application/octet-stream;base64,"
        }
    ]
}
