{
	"asset":{
		"generator":"Khronos glTF Blender I/O v3.5.30",
		"version":"2.0"
	},
	"extensionsUsed":[
		"KHR_materials_specular",
		"KHR_materials_ior"
	],
	"scene":0,
	"scenes":[
		{
			"extras":{
				"sprytile_data":{
					"auto_reload":0,
					"world_pixels":32
				}
			},
			"name":"Scene",
			"nodes":[
				0,
				1
			]
		}
	],
	"nodes":[
		{
			"extras":{
				"collider":"box"
			},
			"mesh":0,
			"name":"Bag",
			"scale":[
				1.600000023841858,
				1.340000033378601,
				2
			],
			"translation":[
				0,
				1.6250696182250977,
				0
			]
		},
		{
			"mesh":1,
			"name":"Ring",
			"scale":[
				0.17367610335350037,
				0.8270715475082397,
				0.17367610335350037
			],
			"translation":[
				0,
				2.152125358581543,
				0
			]
		}
	],
	"materials":[
		{
			"doubleSided":true,
			"extensions":{
				"KHR_materials_specular":{
					"specularColorFactor":[
						0.3125880337570285,
						0.3125880337570285,
						0.3125880337570285
					]
				},
				"KHR_materials_ior":{
					"ior":1.4500000476837158
				}
			},
			"name":"Cloth",
			"pbrMetallicRoughness":{
				"baseColorFactor":[
					0.25295013189315796,
					0.08177438378334045,
					0.040495023131370544,
					1
				],
				"metallicFactor":0,
				"roughnessFactor":0.7136363387107849
			}
		},
		{
			"doubleSided":true,
			"extensions":{
				"KHR_materials_specular":{
					"specularColorFactor":[
						0,
						0,
						0
					]
				},
				"KHR_materials_ior":{
					"ior":1.4500000476837158
				}
			},
			"name":"String",
			"pbrMetallicRoughness":{
				"baseColorFactor":[
					0.07498247921466827,
					0.022421373054385185,
					0.0027800509706139565,
					1
				],
				"metallicFactor":0
			}
		}
	],
	"meshes":[
		{
			"name":"Cube.001",
			"primitives":[
				{
					"attributes":{
						"POSITION":0,
						"TEXCOORD_0":1,
						"NORMAL":2
					},
					"indices":3,
					"material":0
				}
			]
		},
		{
			"name":"Torus.001",
			"primitives":[
				{
					"attributes":{
						"POSITION":4,
						"TEXCOORD_0":5,
						"NORMAL":6
					},
					"indices":7,
					"material":1
				}
			]
		}
	],
	"accessors":[
		{
			"bufferView":0,
			"componentType":5126,
			"count":441,
			"max":[
				0.8737398982048035,
				0.703557014465332,
				0.8384690284729004
			],
			"min":[
				-0.8737923502922058,
				-1.2027288675308228,
				-0.8457208871841431
			],
			"type":"VEC3"
		},
		{
			"bufferView":1,
			"componentType":5126,
			"count":441,
			"type":"VEC2"
		},
		{
			"bufferView":2,
			"componentType":5126,
			"count":441,
			"type":"VEC3"
		},
		{
			"bufferView":3,
			"componentType":5123,
			"count":2253,
			"type":"SCALAR"
		},
		{
			"bufferView":4,
			"componentType":5126,
			"count":637,
			"max":[
				1.8299999237060547,
				0.050000011920928955,
				1.8299999237060547
			],
			"min":[
				-1.8299999237060547,
				-0.050000011920928955,
				-1.8299999237060547
			],
			"type":"VEC3"
		},
		{
			"bufferView":5,
			"componentType":5126,
			"count":637,
			"type":"VEC2"
		},
		{
			"bufferView":6,
			"componentType":5126,
			"count":637,
			"type":"VEC3"
		},
		{
			"bufferView":7,
			"componentType":5123,
			"count":3456,
			"type":"SCALAR"
		}
	],
	"bufferViews":[
		{
			"buffer":0,
			"byteLength":5292,
			"byteOffset":0,
			"target":34962
		},
		{
			"buffer":0,
			"byteLength":3528,
			"byteOffset":5292,
			"target":34962
		},
		{
			"buffer":0,
			"byteLength":5292,
			"byteOffset":8820,
			"target":34962
		},
		{
			"buffer":0,
			"byteLength":4506,
			"byteOffset":14112,
			"target":34963
		},
		{
			"buffer":0,
			"byteLength":7644,
			"byteOffset":18620,
			"target":34962
		},
		{
			"buffer":0,
			"byteLength":5096,
			"byteOffset":26264,
			"target":34962
		},
		{
			"buffer":0,
			"byteLength":7644,
			"byteOffset":31360,
			"target":34962
		},
		{
			"buffer":0,
			"byteLength":6912,
			"byteOffset":39004,
			"target":34963
		}
	],
	"buffers":[
		{
			"byteLength":45916,
			"uri":"data:application/octet-stream;base64,"
		}
	]
}
