{
    "asset" : {
        "generator" : "Khronos glTF Blender I/O v1.6.16",
        "version" : "2.0"
    },
    "scene" : 0,
    "scenes" : [
        {
            "name" : "Scene",
            "nodes" : [
                0,
                1,
                2,
                3
            ]
        }
    ],
    "nodes" : [
        {
            "mesh" : 0,
            "name" : "Cylinder",
            "translation" : [
                0,
                0.009517990052700043,
                0
            ]
        },
        {
            "mesh" : 1,
            "name" : "Cylinder.001",
            "rotation" : [
                0,
                0,
                -0.7071067690849304,
                0.7071068286895752
            ],
            "scale" : [
                1.6747281551361084,
                0.6698912978172302,
                1.6747281551361084
            ],
            "translation" : [
                0,
                2.3631317615509033,
                -0.3198198080062866
            ]
        },
        {
            "mesh" : 2,
            "name" : "Cylinder.002",
            "rotation" : [
                0.7071068286895752,
                0,
                0,
                0.7071068286895752
            ],
            "scale" : [
                1,
                0.5,
                1
            ],
            "translation" : [
                0,
                0.009517990052700043,
                0
            ]
        },
        {
            "mesh" : 3,
            "name" : "Cylinder.003",
            "rotation" : [
                0,
                0,
                -0.7071067690849304,
                0.7071068286895752
            ],
            "scale" : [
                0.10502678155899048,
                0.46178698539733887,
                0.10502678155899048
            ],
            "translation" : [
                0,
                3.9007227420806885,
                0.9645112752914429
            ]
        }
    ],
    "materials" : [
        {
            "doubleSided" : true,
            "name" : "Wood",
            "pbrMetallicRoughness" : {
                "baseColorTexture" : {
                    "index" : 0
                },
                "metallicFactor" : 0,
                "roughnessFactor" : 0.8045454621315002
            }
        },
        {
            "doubleSided" : true,
            "name" : "Red",
            "pbrMetallicRoughness" : {
                "baseColorFactor" : [
                    1,
                    0.5215886235237122,
                    0.7272611856460571,
                    1
                ],
                "baseColorTexture" : {
                    "index" : 1
                },
                "metallicFactor" : 0,
                "roughnessFactor" : 0.8636363744735718
            }
        },
        {
            "doubleSided" : true,
            "name" : "Blue",
            "pbrMetallicRoughness" : {
                "baseColorFactor" : [
                    0.4296293556690216,
                    0.713172972202301,
                    1,
                    1
                ],
                "baseColorTexture" : {
                    "index" : 2
                },
                "metallicFactor" : 0,
                "roughnessFactor" : 0.8272727131843567
            }
        },
        {
            "doubleSided" : true,
            "name" : "Black",
            "pbrMetallicRoughness" : {
                "baseColorFactor" : [
                    0,
                    0,
                    0,
                    1
                ],
                "baseColorTexture" : {
                    "index" : 3
                },
                "metallicFactor" : 0,
                "roughnessFactor" : 0.9297029972076416
            }
        }
    ],
    "meshes" : [
        {
            "name" : "Cylinder",
            "primitives" : [
                {
                    "attributes" : {
                        "POSITION" : 0,
                        "NORMAL" : 1,
                        "TEXCOORD_0" : 2
                    },
                    "indices" : 3,
                    "material" : 0
                }
            ]
        },
        {
            "name" : "Cylinder.001",
            "primitives" : [
                {
                    "attributes" : {
                        "POSITION" : 4,
                        "NORMAL" : 5,
                        "TEXCOORD_0" : 6
                    },
                    "indices" : 7,
                    "material" : 1
                },
                {
                    "attributes" : {
                        "POSITION" : 8,
                        "NORMAL" : 9,
                        "TEXCOORD_0" : 10
                    },
                    "indices" : 11,
                    "material" : 2
                },
                {
                    "attributes" : {
                        "POSITION" : 12,
                        "NORMAL" : 13,
                        "TEXCOORD_0" : 14
                    },
                    "indices" : 15,
                    "material" : 3
                }
            ]
        },
        {
            "name" : "Cylinder.003",
            "primitives" : [
                {
                    "attributes" : {
                        "POSITION" : 16,
                        "NORMAL" : 17,
                        "TEXCOORD_0" : 18
                    },
                    "indices" : 19,
                    "material" : 1
                }
            ]
        },
        {
            "name" : "Cylinder.004",
            "primitives" : [
                {
                    "attributes" : {
                        "POSITION" : 20,
                        "NORMAL" : 21,
                        "TEXCOORD_0" : 22
                    },
                    "indices" : 23,
                    "material" : 3
                }
            ]
        }
    ],
    "textures" : [
        {
            "sampler" : 0,
            "source" : 0
        },
        {
            "sampler" : 0,
            "source" : 0
        },
        {
            "sampler" : 0,
            "source" : 0
        },
        {
            "sampler" : 0,
            "source" : 0
        }
    ],
    "images" : [
        {
            "bufferView" : 4,
            "mimeType" : "image/jpeg",
            "name" : "Wood063_1K_Color"
        }
    ],
    "accessors" : [
        {
            "bufferView" : 0,
            "componentType" : 5126,
            "count" : 272,
            "max" : [
                0.75,
                0.9194096326828003,
                0.75
            ],
            "min" : [
                -0.7500000596046448,
                -2.2351741790771484e-08,
                -0.75
            ],
            "type" : "VEC3"
        },
        {
            "bufferView" : 1,
            "componentType" : 5126,
            "count" : 272,
            "type" : "VEC3"
        },
        {
            "bufferView" : 2,
            "componentType" : 5126,
            "count" : 272,
            "type" : "VEC2"
        },
        {
            "bufferView" : 3,
            "componentType" : 5123,
            "count" : 756,
            "type" : "SCALAR"
        },
        {
            "bufferView" : 5,
            "componentType" : 5126,
            "count" : 96,
            "max" : [
                -0.2665821313858032,
                0.5940287709236145,
                0.9347896575927734
            ],
            "min" : [
                -1.1595134735107422,
                -0.5940288305282593,
                0.06521037220954895
            ],
            "type" : "VEC3"
        },
        {
            "bufferView" : 6,
            "componentType" : 5126,
            "count" : 96,
            "type" : "VEC3"
        },
        {
            "bufferView" : 7,
            "componentType" : 5126,
            "count" : 96,
            "type" : "VEC2"
        },
        {
            "bufferView" : 8,
            "componentType" : 5123,
            "count" : 288,
            "type" : "SCALAR"
        },
        {
            "bufferView" : 9,
            "componentType" : 5126,
            "count" : 204,
            "max" : [
                1,
                1,
                1
            ],
            "min" : [
                -0.2665822207927704,
                -1,
                -0.813664436340332
            ],
            "type" : "VEC3"
        },
        {
            "bufferView" : 10,
            "componentType" : 5126,
            "count" : 204,
            "type" : "VEC3"
        },
        {
            "bufferView" : 11,
            "componentType" : 5126,
            "count" : 204,
            "type" : "VEC2"
        },
        {
            "bufferView" : 12,
            "componentType" : 5123,
            "count" : 606,
            "type" : "SCALAR"
        },
        {
            "bufferView" : 13,
            "componentType" : 5126,
            "count" : 18,
            "max" : [
                -0.7530421614646912,
                0.4416390657424927,
                1.2487783432006836
            ],
            "min" : [
                -0.9500972032546997,
                -0.44350185990333557,
                0.923017680644989
            ],
            "type" : "VEC3"
        },
        {
            "bufferView" : 14,
            "componentType" : 5126,
            "count" : 18,
            "type" : "VEC3"
        },
        {
            "bufferView" : 15,
            "componentType" : 5126,
            "count" : 18,
            "type" : "VEC2"
        },
        {
            "bufferView" : 16,
            "componentType" : 5123,
            "count" : 30,
            "type" : "SCALAR"
        },
        {
            "bufferView" : 17,
            "componentType" : 5126,
            "count" : 108,
            "max" : [
                1.8453304767608643,
                0.964552640914917,
                -1.4961304664611816
            ],
            "min" : [
                -1.8453304767608643,
                -0.57886803150177,
                -2.76361346244812
            ],
            "type" : "VEC3"
        },
        {
            "bufferView" : 18,
            "componentType" : 5126,
            "count" : 108,
            "type" : "VEC3"
        },
        {
            "bufferView" : 19,
            "componentType" : 5126,
            "count" : 108,
            "type" : "VEC2"
        },
        {
            "bufferView" : 20,
            "componentType" : 5123,
            "count" : 240,
            "type" : "SCALAR"
        },
        {
            "bufferView" : 21,
            "componentType" : 5126,
            "count" : 192,
            "max" : [
                1,
                1,
                1
            ],
            "min" : [
                -1,
                -1,
                -1
            ],
            "type" : "VEC3"
        },
        {
            "bufferView" : 22,
            "componentType" : 5126,
            "count" : 192,
            "type" : "VEC3"
        },
        {
            "bufferView" : 23,
            "componentType" : 5126,
            "count" : 192,
            "type" : "VEC2"
        },
        {
            "bufferView" : 24,
            "componentType" : 5123,
            "count" : 372,
            "type" : "SCALAR"
        }
    ],
    "bufferViews" : [
        {
            "buffer" : 0,
            "byteLength" : 3264,
            "byteOffset" : 0
        },
        {
            "buffer" : 0,
            "byteLength" : 3264,
            "byteOffset" : 3264
        },
        {
            "buffer" : 0,
            "byteLength" : 2176,
            "byteOffset" : 6528
        },
        {
            "buffer" : 0,
            "byteLength" : 1512,
            "byteOffset" : 8704
        },
        {
            "buffer" : 0,
            "byteLength" : 1707037,
            "byteOffset" : 10216
        },
        {
            "buffer" : 0,
            "byteLength" : 1152,
            "byteOffset" : 1717256
        },
        {
            "buffer" : 0,
            "byteLength" : 1152,
            "byteOffset" : 1718408
        },
        {
            "buffer" : 0,
            "byteLength" : 768,
            "byteOffset" : 1719560
        },
        {
            "buffer" : 0,
            "byteLength" : 576,
            "byteOffset" : 1720328
        },
        {
            "buffer" : 0,
            "byteLength" : 2448,
            "byteOffset" : 1720904
        },
        {
            "buffer" : 0,
            "byteLength" : 2448,
            "byteOffset" : 1723352
        },
        {
            "buffer" : 0,
            "byteLength" : 1632,
            "byteOffset" : 1725800
        },
        {
            "buffer" : 0,
            "byteLength" : 1212,
            "byteOffset" : 1727432
        },
        {
            "buffer" : 0,
            "byteLength" : 216,
            "byteOffset" : 1728644
        },
        {
            "buffer" : 0,
            "byteLength" : 216,
            "byteOffset" : 1728860
        },
        {
            "buffer" : 0,
            "byteLength" : 144,
            "byteOffset" : 1729076
        },
        {
            "buffer" : 0,
            "byteLength" : 60,
            "byteOffset" : 1729220
        },
        {
            "buffer" : 0,
            "byteLength" : 1296,
            "byteOffset" : 1729280
        },
        {
            "buffer" : 0,
            "byteLength" : 1296,
            "byteOffset" : 1730576
        },
        {
            "buffer" : 0,
            "byteLength" : 864,
            "byteOffset" : 1731872
        },
        {
            "buffer" : 0,
            "byteLength" : 480,
            "byteOffset" : 1732736
        },
        {
            "buffer" : 0,
            "byteLength" : 2304,
            "byteOffset" : 1733216
        },
        {
            "buffer" : 0,
            "byteLength" : 2304,
            "byteOffset" : 1735520
        },
        {
            "buffer" : 0,
            "byteLength" : 1536,
            "byteOffset" : 1737824
        },
        {
            "buffer" : 0,
            "byteLength" : 744,
            "byteOffset" : 1739360
        }
    ],
    "samplers" : [
        {
            "magFilter" : 9729,
            "minFilter" : 9987
        }
    ],
    "buffers" : [
        {
            "byteLength" : 1740104,
            "uri" : "data:application/octet-stream;base64,"
        }
    ]
}
