{
    "asset" : {
        "generator" : "Khronos glTF Blender I/O v1.6.16",
        "version" : "2.0"
    },
    "scene" : 0,
    "scenes" : [
        {
            "name" : "Scene",
            "nodes" : [
                0,
                1,
                2,
                3
            ]
        }
    ],
    "nodes" : [
        {
            "mesh" : 0,
            "name" : "Cylinder",
            "translation" : [
                0,
                0.009517990052700043,
                0
            ]
        },
        {
            "mesh" : 1,
            "name" : "Cylinder.001",
            "rotation" : [
                0,
                0,
                -0.7071067690849304,
                0.7071068286895752
            ],
            "translation" : [
                0,
                2.3631317615509033,
                -0.3198198080062866
            ]
        },
        {
            "mesh" : 2,
            "name" : "Cylinder.002",
            "rotation" : [
                0.7071068286895752,
                0,
                0,
                0.7071068286895752
            ],
            "translation" : [
                0,
                0.009517990052700043,
                0
            ]
        },
        {
            "mesh" : 3,
            "name" : "Cylinder.003",
            "rotation" : [
                0,
                0,
                -0.7071067690849304,
                0.7071068286895752
            ],
            "scale" : [
                0.10502678155899048,
                0.46178698539733887,
                0.10502678155899048
            ],
            "translation" : [
                0,
                3.9007227420806885,
                0.9645112752914429
            ]
        }
    ],
    "materials" : [
        {
            "doubleSided" : true,
            "name" : "Wood",
            "normalTexture" : {
                "index" : 0,
                "scale" : 0.8000000715255737
            },
            "pbrMetallicRoughness" : {
                "baseColorFactor" : [
                    0.16319037973880768,
                    0.06073128804564476,
                    0.016207482665777206,
                    1
                ],
                "metallicFactor" : 0,
                "roughnessFactor" : 0.6954545378684998
            }
        },
        {
            "doubleSided" : true,
            "name" : "Red",
            "normalTexture" : {
                "index" : 1,
                "scale" : 0.6000001430511475
            },
            "pbrMetallicRoughness" : {
                "baseColorFactor" : [
                    0.47839802503585815,
                    0.0975136086344719,
                    0.03594174608588219,
                    1
                ],
                "metallicFactor" : 0,
                "roughnessFactor" : 0.6954545378684998
            }
        },
        {
            "doubleSided" : true,
            "name" : "Blue",
            "normalTexture" : {
                "index" : 2,
                "scale" : 0.4000001847743988
            },
            "pbrMetallicRoughness" : {
                "baseColorFactor" : [
                    0.2510855495929718,
                    0.08391048014163971,
                    0.03917406126856804,
                    1
                ],
                "metallicFactor" : 0,
                "roughnessFactor" : 0.6954545378684998
            }
        },
        {
            "doubleSided" : true,
            "name" : "Black",
            "normalTexture" : {
                "index" : 3,
                "scale" : 0.8000000715255737
            },
            "pbrMetallicRoughness" : {
                "baseColorFactor" : [
                    0.04453412815928459,
                    0.019428353756666183,
                    0.010695110075175762,
                    1
                ],
                "metallicFactor" : 0,
                "roughnessFactor" : 0.6954545378684998
            }
        }
    ],
    "meshes" : [
        {
            "name" : "Cylinder",
            "primitives" : [
                {
                    "attributes" : {
                        "POSITION" : 0,
                        "NORMAL" : 1,
                        "TEXCOORD_0" : 2
                    },
                    "indices" : 3,
                    "material" : 0
                }
            ]
        },
        {
            "name" : "Cylinder.001",
            "primitives" : [
                {
                    "attributes" : {
                        "POSITION" : 4,
                        "NORMAL" : 5,
                        "TEXCOORD_0" : 6
                    },
                    "indices" : 7,
                    "material" : 1
                },
                {
                    "attributes" : {
                        "POSITION" : 8,
                        "NORMAL" : 9,
                        "TEXCOORD_0" : 10
                    },
                    "indices" : 11,
                    "material" : 2
                },
                {
                    "attributes" : {
                        "POSITION" : 12,
                        "NORMAL" : 13,
                        "TEXCOORD_0" : 14
                    },
                    "indices" : 15,
                    "material" : 3
                }
            ]
        },
        {
            "name" : "Cylinder.003",
            "primitives" : [
                {
                    "attributes" : {
                        "POSITION" : 16,
                        "NORMAL" : 17,
                        "TEXCOORD_0" : 18
                    },
                    "indices" : 19,
                    "material" : 1
                }
            ]
        },
        {
            "name" : "Cylinder.004",
            "primitives" : [
                {
                    "attributes" : {
                        "POSITION" : 20,
                        "NORMAL" : 21,
                        "TEXCOORD_0" : 22
                    },
                    "indices" : 23,
                    "material" : 3
                }
            ]
        }
    ],
    "textures" : [
        {
            "sampler" : 0,
            "source" : 0
        },
        {
            "sampler" : 0,
            "source" : 0
        },
        {
            "sampler" : 0,
            "source" : 0
        },
        {
            "sampler" : 0,
            "source" : 0
        }
    ],
    "images" : [
        {
            "bufferView" : 4,
            "mimeType" : "image/jpeg",
            "name" : "Wood063_1K_NormalGL"
        }
    ],
    "accessors" : [
        {
            "bufferView" : 0,
            "componentType" : 5126,
            "count" : 272,
            "max" : [
                0.75,
                0.9194096326828003,
                0.75
            ],
            "min" : [
                -0.7500000596046448,
                -2.2351741790771484e-08,
                -0.75
            ],
            "type" : "VEC3"
        },
        {
            "bufferView" : 1,
            "componentType" : 5126,
            "count" : 272,
            "type" : "VEC3"
        },
        {
            "bufferView" : 2,
            "componentType" : 5126,
            "count" : 272,
            "type" : "VEC2"
        },
        {
            "bufferView" : 3,
            "componentType" : 5123,
            "count" : 756,
            "type" : "SCALAR"
        },
        {
            "bufferView" : 5,
            "componentType" : 5126,
            "count" : 92,
            "max" : [
                -0.4464525878429413,
                0.3979347050189972,
                1.5655186176300049
            ],
            "min" : [
                -1.941869854927063,
                -0.3979347348213196,
                0.10920964926481247
            ],
            "type" : "VEC3"
        },
        {
            "bufferView" : 6,
            "componentType" : 5126,
            "count" : 92,
            "type" : "VEC3"
        },
        {
            "bufferView" : 7,
            "componentType" : 5126,
            "count" : 92,
            "type" : "VEC2"
        },
        {
            "bufferView" : 8,
            "componentType" : 5123,
            "count" : 288,
            "type" : "SCALAR"
        },
        {
            "bufferView" : 9,
            "componentType" : 5126,
            "count" : 184,
            "max" : [
                1.6747281551361084,
                0.6698912978172302,
                1.6747281551361084
            ],
            "min" : [
                -0.4464527368545532,
                -0.6698912978172302,
                -1.3626667261123657
            ],
            "type" : "VEC3"
        },
        {
            "bufferView" : 10,
            "componentType" : 5126,
            "count" : 184,
            "type" : "VEC3"
        },
        {
            "bufferView" : 11,
            "componentType" : 5126,
            "count" : 184,
            "type" : "VEC2"
        },
        {
            "bufferView" : 12,
            "componentType" : 5123,
            "count" : 606,
            "type" : "SCALAR"
        },
        {
            "bufferView" : 13,
            "componentType" : 5126,
            "count" : 20,
            "max" : [
                -1.2611409425735474,
                0.29585015773773193,
                2.0913641452789307
            ],
            "min" : [
                -1.5911545753479004,
                -0.2970980405807495,
                1.5458036661148071
            ],
            "type" : "VEC3"
        },
        {
            "bufferView" : 14,
            "componentType" : 5126,
            "count" : 20,
            "type" : "VEC3"
        },
        {
            "bufferView" : 15,
            "componentType" : 5126,
            "count" : 20,
            "type" : "VEC2"
        },
        {
            "bufferView" : 16,
            "componentType" : 5123,
            "count" : 30,
            "type" : "SCALAR"
        },
        {
            "bufferView" : 17,
            "componentType" : 5126,
            "count" : 136,
            "max" : [
                1.8355376720428467,
                0.4822763204574585,
                -1.4961304664611816
            ],
            "min" : [
                -1.8355376720428467,
                -0.289434015750885,
                -2.76361346244812
            ],
            "type" : "VEC3"
        },
        {
            "bufferView" : 18,
            "componentType" : 5126,
            "count" : 136,
            "type" : "VEC3"
        },
        {
            "bufferView" : 19,
            "componentType" : 5126,
            "count" : 136,
            "type" : "VEC2"
        },
        {
            "bufferView" : 20,
            "componentType" : 5123,
            "count" : 336,
            "type" : "SCALAR"
        },
        {
            "bufferView" : 21,
            "componentType" : 5126,
            "count" : 192,
            "max" : [
                1,
                1,
                1
            ],
            "min" : [
                -1,
                -1,
                -1
            ],
            "type" : "VEC3"
        },
        {
            "bufferView" : 22,
            "componentType" : 5126,
            "count" : 192,
            "type" : "VEC3"
        },
        {
            "bufferView" : 23,
            "componentType" : 5126,
            "count" : 192,
            "type" : "VEC2"
        },
        {
            "bufferView" : 24,
            "componentType" : 5123,
            "count" : 372,
            "type" : "SCALAR"
        }
    ],
    "bufferViews" : [
        {
            "buffer" : 0,
            "byteLength" : 3264,
            "byteOffset" : 0
        },
        {
            "buffer" : 0,
            "byteLength" : 3264,
            "byteOffset" : 3264
        },
        {
            "buffer" : 0,
            "byteLength" : 2176,
            "byteOffset" : 6528
        },
        {
            "buffer" : 0,
            "byteLength" : 1512,
            "byteOffset" : 8704
        },
        {
            "buffer" : 0,
            "byteLength" : 97086,
            "byteOffset" : 10216
        },
        {
            "buffer" : 0,
            "byteLength" : 1104,
            "byteOffset" : 107304
        },
        {
            "buffer" : 0,
            "byteLength" : 1104,
            "byteOffset" : 108408
        },
        {
            "buffer" : 0,
            "byteLength" : 736,
            "byteOffset" : 109512
        },
        {
            "buffer" : 0,
            "byteLength" : 576,
            "byteOffset" : 110248
        },
        {
            "buffer" : 0,
            "byteLength" : 2208,
            "byteOffset" : 110824
        },
        {
            "buffer" : 0,
            "byteLength" : 2208,
            "byteOffset" : 113032
        },
        {
            "buffer" : 0,
            "byteLength" : 1472,
            "byteOffset" : 115240
        },
        {
            "buffer" : 0,
            "byteLength" : 1212,
            "byteOffset" : 116712
        },
        {
            "buffer" : 0,
            "byteLength" : 240,
            "byteOffset" : 117924
        },
        {
            "buffer" : 0,
            "byteLength" : 240,
            "byteOffset" : 118164
        },
        {
            "buffer" : 0,
            "byteLength" : 160,
            "byteOffset" : 118404
        },
        {
            "buffer" : 0,
            "byteLength" : 60,
            "byteOffset" : 118564
        },
        {
            "buffer" : 0,
            "byteLength" : 1632,
            "byteOffset" : 118624
        },
        {
            "buffer" : 0,
            "byteLength" : 1632,
            "byteOffset" : 120256
        },
        {
            "buffer" : 0,
            "byteLength" : 1088,
            "byteOffset" : 121888
        },
        {
            "buffer" : 0,
            "byteLength" : 672,
            "byteOffset" : 122976
        },
        {
            "buffer" : 0,
            "byteLength" : 2304,
            "byteOffset" : 123648
        },
        {
            "buffer" : 0,
            "byteLength" : 2304,
            "byteOffset" : 125952
        },
        {
            "buffer" : 0,
            "byteLength" : 1536,
            "byteOffset" : 128256
        },
        {
            "buffer" : 0,
            "byteLength" : 744,
            "byteOffset" : 129792
        }
    ],
    "samplers" : [
        {
            "magFilter" : 9729,
            "minFilter" : 9987
        }
    ],
    "buffers" : [
        {
            "byteLength" : 130536,
            "uri" : "data:application/octet-stream;base64,"
        }
    ]
}
