{
	"asset":{
		"generator":"Khronos glTF Blender I/O v3.5.30",
		"version":"2.0"
	},
	"extensionsUsed":[
		"KHR_materials_specular",
		"KHR_materials_ior"
	],
	"scene":0,
	"scenes":[
		{
			"name":"Scene",
			"nodes":[
				0
			]
		}
	],
	"nodes":[
		{
			"extras":{
				"collider":"box"
			},
			"mesh":0,
			"name":"Curve",
			"rotation":[
				0.7071068286895752,
				0,
				0,
				0.7071068286895752
			],
			"scale":[
				5.067098617553711,
				167.21426391601562,
				5.067098617553711
			]
		}
	],
	"materials":[
		{
			"doubleSided":true,
			"extensions":{
				"KHR_materials_specular":{
					"specularColorFactor":[
						0.054388931572474736,
						0.054388931572474736,
						0.054388931572474736
					]
				},
				"KHR_materials_ior":{
					"ior":1.4500000476837158
				}
			},
			"name":"Meeple",
			"pbrMetallicRoughness":{
				"baseColorFactor":[
					0.5629642605781555,
					0.5629642605781555,
					0.5629642605781555,
					1
				],
				"metallicFactor":0,
				"roughnessFactor":0.6018348932266235
			}
		}
	],
	"meshes":[
		{
			"name":"Curve",
			"primitives":[
				{
					"attributes":{
						"POSITION":0,
						"TEXCOORD_0":1,
						"NORMAL":2
					},
					"indices":3,
					"material":0
				}
			]
		}
	],
	"accessors":[
		{
			"bufferView":0,
			"componentType":5126,
			"count":1026,
			"max":[
				0.06124452129006386,
				0.000986758852377534,
				0.04846034571528435
			],
			"min":[
				-0.061244212090969086,
				-0.000986872473731637,
				-0.06497740000486374
			],
			"type":"VEC3"
		},
		{
			"bufferView":1,
			"componentType":5126,
			"count":1026,
			"type":"VEC2"
		},
		{
			"bufferView":2,
			"componentType":5126,
			"count":1026,
			"type":"VEC3"
		},
		{
			"bufferView":3,
			"componentType":5123,
			"count":3066,
			"type":"SCALAR"
		}
	],
	"bufferViews":[
		{
			"buffer":0,
			"byteLength":12312,
			"byteOffset":0,
			"target":34962
		},
		{
			"buffer":0,
			"byteLength":8208,
			"byteOffset":12312,
			"target":34962
		},
		{
			"buffer":0,
			"byteLength":12312,
			"byteOffset":20520,
			"target":34962
		},
		{
			"buffer":0,
			"byteLength":6132,
			"byteOffset":32832,
			"target":34963
		}
	],
	"buffers":[
		{
			"byteLength":38964,
			"uri":"data:application/octet-stream;base64,"
		}
	]
}
