{
	"asset":{
		"generator":"Khronos glTF Blender I/O v3.5.30",
		"version":"2.0"
	},
	"scene":0,
	"scenes":[
		{
			"name":"Scene",
			"nodes":[
				0
			]
		}
	],
	"nodes":[
		{
			"extras":{
				"collider":"box"
			},
			"mesh":0,
			"name":"Cube",
			"scale":[
				0.07283201068639755,
				0.07283201068639755,
				0.16548921167850494
			],
			"translation":[
				0,
				-0.17215925455093384,
				0
			]
		}
	],
	"materials":[
		{
			"doubleSided":true,
			"name":"Material",
			"pbrMetallicRoughness":{
				"baseColorFactor":[
					0.800000011920929,
					0.800000011920929,
					0.800000011920929,
					1
				],
				"metallicFactor":0
			}
		}
	],
	"meshes":[
		{
			"name":"Cube",
			"primitives":[
				{
					"attributes":{
						"POSITION":0,
						"TEXCOORD_0":1,
						"NORMAL":2
					},
					"indices":3,
					"material":0
				}
			]
		}
	],
	"accessors":[
		{
			"bufferView":0,
			"componentType":5126,
			"count":311,
			"max":[
				4.1432390213012695,
				6.770895957946777,
				1
			],
			"min":[
				-4.1432390213012695,
				-1.0006732940673828,
				-1
			],
			"type":"VEC3"
		},
		{
			"bufferView":1,
			"componentType":5126,
			"count":311,
			"type":"VEC2"
		},
		{
			"bufferView":2,
			"componentType":5126,
			"count":311,
			"type":"VEC3"
		},
		{
			"bufferView":3,
			"componentType":5123,
			"count":876,
			"type":"SCALAR"
		}
	],
	"bufferViews":[
		{
			"buffer":0,
			"byteLength":3732,
			"byteOffset":0,
			"target":34962
		},
		{
			"buffer":0,
			"byteLength":2488,
			"byteOffset":3732,
			"target":34962
		},
		{
			"buffer":0,
			"byteLength":3732,
			"byteOffset":6220,
			"target":34962
		},
		{
			"buffer":0,
			"byteLength":1752,
			"byteOffset":9952,
			"target":34963
		}
	],
	"buffers":[
		{
			"byteLength":11704,
			"uri":"data:application/octet-stream;base64,"
		}
	]
}
