{
	"asset":{
		"generator":"Khronos glTF Blender I/O v3.5.30",
		"version":"2.0"
	},
	"extensionsUsed":[
		"KHR_materials_specular",
		"KHR_materials_ior"
	],
	"scene":0,
	"scenes":[
		{
			"name":"Scene",
			"nodes":[
				0
			]
		}
	],
	"nodes":[
		{
			"extras":{
				"collider":"cylinder"
			},
			"mesh":0,
			"name":"Cylinder"
		}
	],
	"materials":[
		{
			"doubleSided":true,
			"extensions":{
				"KHR_materials_specular":{
					"specularColorFactor":[
						1.6034309639092574,
						1.6034309639092574,
						1.6034309639092574
					]
				},
				"KHR_materials_ior":{
					"ior":1.4500000476837158
				}
			},
			"name":"Plastic",
			"pbrMetallicRoughness":{
				"baseColorFactor":[
					0.800000011920929,
					0.800000011920929,
					0.800000011920929,
					1
				],
				"metallicFactor":0,
				"roughnessFactor":0.2652849853038788
			}
		}
	],
	"meshes":[
		{
			"name":"Cylinder",
			"primitives":[
				{
					"attributes":{
						"POSITION":0,
						"TEXCOORD_0":1,
						"NORMAL":2
					},
					"indices":3,
					"material":0
				}
			]
		}
	],
	"accessors":[
		{
			"bufferView":0,
			"componentType":5126,
			"count":666,
			"max":[
				0.3100000023841858,
				0.7159228324890137,
				0.3100000023841858
			],
			"min":[
				-0.3100000023841858,
				0.000764310359954834,
				-0.3100000023841858
			],
			"type":"VEC3"
		},
		{
			"bufferView":1,
			"componentType":5126,
			"count":666,
			"type":"VEC2"
		},
		{
			"bufferView":2,
			"componentType":5126,
			"count":666,
			"type":"VEC3"
		},
		{
			"bufferView":3,
			"componentType":5123,
			"count":3252,
			"type":"SCALAR"
		}
	],
	"bufferViews":[
		{
			"buffer":0,
			"byteLength":7992,
			"byteOffset":0,
			"target":34962
		},
		{
			"buffer":0,
			"byteLength":5328,
			"byteOffset":7992,
			"target":34962
		},
		{
			"buffer":0,
			"byteLength":7992,
			"byteOffset":13320,
			"target":34962
		},
		{
			"buffer":0,
			"byteLength":6504,
			"byteOffset":21312,
			"target":34963
		}
	],
	"buffers":[
		{
			"byteLength":27816,
			"uri":"data:application/octet-stream;base64,"
		}
	]
}
