{
	"asset":{
		"generator":"Khronos glTF Blender I/O v3.5.30",
		"version":"2.0"
	},
	"extensionsUsed":[
		"KHR_materials_specular",
		"KHR_materials_ior"
	],
	"scene":0,
	"scenes":[
		{
			"name":"Scene",
			"nodes":[
				0
			]
		}
	],
	"nodes":[
		{
			"extras":{
				"collider":"cylinder"
			},
			"mesh":0,
			"name":"Cylinder",
			"scale":[
				2,
				2,
				2
			]
		}
	],
	"materials":[
		{
			"doubleSided":true,
			"extensions":{
				"KHR_materials_specular":{
					"specularColorFactor":[
						1.6894387442458516,
						1.6894387442458516,
						1.6894387442458516
					]
				},
				"KHR_materials_ior":{
					"ior":1.4500000476837158
				}
			},
			"name":"Wood",
			"pbrMetallicRoughness":{
				"metallicFactor":0,
				"roughnessFactor":0.515544056892395
			}
		}
	],
	"meshes":[
		{
			"name":"Cylinder",
			"primitives":[
				{
					"attributes":{
						"POSITION":0,
						"TEXCOORD_0":1,
						"NORMAL":2
					},
					"indices":3,
					"material":0
				}
			]
		}
	],
	"accessors":[
		{
			"bufferView":0,
			"componentType":5126,
			"count":163,
			"max":[
				1,
				0.3061072528362274,
				1
			],
			"min":[
				-1,
				0,
				-1
			],
			"type":"VEC3"
		},
		{
			"bufferView":1,
			"componentType":5126,
			"count":163,
			"type":"VEC2"
		},
		{
			"bufferView":2,
			"componentType":5126,
			"count":163,
			"type":"VEC3"
		},
		{
			"bufferView":3,
			"componentType":5123,
			"count":564,
			"type":"SCALAR"
		}
	],
	"bufferViews":[
		{
			"buffer":0,
			"byteLength":1956,
			"byteOffset":0,
			"target":34962
		},
		{
			"buffer":0,
			"byteLength":1304,
			"byteOffset":1956,
			"target":34962
		},
		{
			"buffer":0,
			"byteLength":1956,
			"byteOffset":3260,
			"target":34962
		},
		{
			"buffer":0,
			"byteLength":1128,
			"byteOffset":5216,
			"target":34963
		}
	],
	"buffers":[
		{
			"byteLength":6344,
			"uri":"data:application/octet-stream;base64,"
		}
	]
}
