{
	"asset":{
		"generator":"Khronos glTF Blender I/O v3.5.30",
		"version":"2.0"
	},
	"extensionsUsed":[
		"KHR_materials_specular",
		"KHR_materials_ior"
	],
	"scene":0,
	"scenes":[
		{
			"name":"Scene",
			"nodes":[
				0
			]
		}
	],
	"nodes":[
		{
			"extras":{
				"collider":"box"
			},
			"mesh":0,
			"name":"Cube",
			"scale":[
				0.19499999284744263,
				0.3969689905643463,
				0.3787083923816681
			]
		}
	],
	"materials":[
		{
			"doubleSided":true,
			"extensions":{
				"KHR_materials_specular":{
					"specularColorFactor":[
						0,
						0,
						0
					]
				},
				"KHR_materials_ior":{
					"ior":1.4500000476837158
				}
			},
			"name":"Material",
			"pbrMetallicRoughness":{
				"baseColorFactor":[
					0.800000011920929,
					0.800000011920929,
					0.800000011920929,
					1
				],
				"metallicFactor":0,
				"roughnessFactor":0.7798165082931519
			}
		}
	],
	"meshes":[
		{
			"name":"Cube",
			"primitives":[
				{
					"attributes":{
						"POSITION":0,
						"TEXCOORD_0":1,
						"NORMAL":2
					},
					"indices":3,
					"material":0
				}
			]
		}
	],
	"accessors":[
		{
			"bufferView":0,
			"componentType":5126,
			"count":126,
			"max":[
				1.0068247318267822,
				0.8641254901885986,
				1
			],
			"min":[
				-1.0068247318267822,
				-1,
				-0.9540100693702698
			],
			"type":"VEC3"
		},
		{
			"bufferView":1,
			"componentType":5126,
			"count":126,
			"type":"VEC2"
		},
		{
			"bufferView":2,
			"componentType":5126,
			"count":126,
			"type":"VEC3"
		},
		{
			"bufferView":3,
			"componentType":5123,
			"count":396,
			"type":"SCALAR"
		}
	],
	"bufferViews":[
		{
			"buffer":0,
			"byteLength":1512,
			"byteOffset":0,
			"target":34962
		},
		{
			"buffer":0,
			"byteLength":1008,
			"byteOffset":1512,
			"target":34962
		},
		{
			"buffer":0,
			"byteLength":1512,
			"byteOffset":2520,
			"target":34962
		},
		{
			"buffer":0,
			"byteLength":792,
			"byteOffset":4032,
			"target":34963
		}
	],
	"buffers":[
		{
			"byteLength":4824,
			"uri":"data:application/octet-stream;base64,"
		}
	]
}
