{
	"asset":{
		"generator":"Khronos glTF Blender I/O v3.5.30",
		"version":"2.0"
	},
	"extensionsUsed":[
		"KHR_materials_specular",
		"KHR_materials_ior"
	],
	"scene":0,
	"scenes":[
		{
			"name":"Scene",
			"nodes":[
				0
			]
		}
	],
	"nodes":[
		{
			"extras":{
				"collider":"cylinder"
			},
			"mesh":0,
			"name":"Cylinder"
		}
	],
	"materials":[
		{
			"doubleSided":true,
			"extensions":{
				"KHR_materials_specular":{
					"specularColorFactor":[
						0.054388931572474736,
						0.054388931572474736,
						0.054388931572474736
					]
				},
				"KHR_materials_ior":{
					"ior":1.4500000476837158
				}
			},
			"name":"Wood",
			"pbrMetallicRoughness":{
				"baseColorFactor":[
					0.5629642605781555,
					0.5629642605781555,
					0.5629642605781555,
					1
				],
				"metallicFactor":0,
				"roughnessFactor":0.6018348932266235
			}
		}
	],
	"meshes":[
		{
			"name":"Cylinder",
			"primitives":[
				{
					"attributes":{
						"POSITION":0,
						"TEXCOORD_0":1,
						"NORMAL":2
					},
					"indices":3,
					"material":0
				}
			]
		}
	],
	"accessors":[
		{
			"bufferView":0,
			"componentType":5126,
			"count":628,
			"max":[
				0.23867341876029968,
				0.45142051577568054,
				0.23867341876029968
			],
			"min":[
				-0.23867341876029968,
				-0.24672582745552063,
				-0.23867341876029968
			],
			"type":"VEC3"
		},
		{
			"bufferView":1,
			"componentType":5126,
			"count":628,
			"type":"VEC2"
		},
		{
			"bufferView":2,
			"componentType":5126,
			"count":628,
			"type":"VEC3"
		},
		{
			"bufferView":3,
			"componentType":5123,
			"count":3060,
			"type":"SCALAR"
		}
	],
	"bufferViews":[
		{
			"buffer":0,
			"byteLength":7536,
			"byteOffset":0,
			"target":34962
		},
		{
			"buffer":0,
			"byteLength":5024,
			"byteOffset":7536,
			"target":34962
		},
		{
			"buffer":0,
			"byteLength":7536,
			"byteOffset":12560,
			"target":34962
		},
		{
			"buffer":0,
			"byteLength":6120,
			"byteOffset":20096,
			"target":34963
		}
	],
	"buffers":[
		{
			"byteLength":26216,
			"uri":"data:application/octet-stream;base64,"
		}
	]
}
