{
    "asset" : {
        "generator" : "Khronos glTF Blender I/O v1.6.16",
        "version" : "2.0"
    },
    "scene" : 0,
    "scenes" : [
        {
            "name" : "Scene",
            "nodes" : [
                0
            ]
        }
    ],
    "nodes" : [
        {
            "mesh" : 0,
            "name" : "bishop_black",
            "scale" : [
                0.625,
                0.625,
                0.625
            ]
        }
    ],
    "materials" : [
        {
            "doubleSided" : true,
            "name" : "Black",
            "pbrMetallicRoughness" : {
                "baseColorFactor" : [
                    0.018848516047000885,
                    0.01769496127963066,
                    0.01345010008662939,
                    1
                ],
                "metallicFactor" : 0,
                "roughnessFactor" : 0.38550451397895813
            }
        }
    ],
    "meshes" : [
        {
            "name" : "Cylinder.004",
            "primitives" : [
                {
                    "attributes" : {
                        "POSITION" : 0,
                        "NORMAL" : 1,
                        "TEXCOORD_0" : 2
                    },
                    "indices" : 3,
                    "material" : 0
                }
            ]
        }
    ],
    "accessors" : [
        {
            "bufferView" : 0,
            "componentType" : 5126,
            "count" : 1265,
            "max" : [
                0.800000011920929,
                4.270521640777588,
                0.800000011920929
            ],
            "min" : [
                -0.800000011920929,
                0,
                -0.800000011920929
            ],
            "type" : "VEC3"
        },
        {
            "bufferView" : 1,
            "componentType" : 5126,
            "count" : 1265,
            "type" : "VEC3"
        },
        {
            "bufferView" : 2,
            "componentType" : 5126,
            "count" : 1265,
            "type" : "VEC2"
        },
        {
            "bufferView" : 3,
            "componentType" : 5123,
            "count" : 6276,
            "type" : "SCALAR"
        }
    ],
    "bufferViews" : [
        {
            "buffer" : 0,
            "byteLength" : 15180,
            "byteOffset" : 0
        },
        {
            "buffer" : 0,
            "byteLength" : 15180,
            "byteOffset" : 15180
        },
        {
            "buffer" : 0,
            "byteLength" : 10120,
            "byteOffset" : 30360
        },
        {
            "buffer" : 0,
            "byteLength" : 12552,
            "byteOffset" : 40480
        }
    ],
    "buffers" : [
        {
            "byteLength" : 53032,
            "uri" : "data:application/octet-stream;base64,"
        }
    ]
}
