{
    "asset" : {
        "generator" : "Khronos glTF Blender I/O v1.6.16",
        "version" : "2.0"
    },
    "scene" : 0,
    "scenes" : [
        {
            "name" : "Scene",
            "nodes" : [
                0
            ]
        }
    ],
    "nodes" : [
        {
            "mesh" : 0,
            "name" : "king",
            "scale" : [
                0.6800000071525574,
                0.6800000071525574,
                0.6800000071525574
            ],
            "translation" : [
                0,
                0.030049076303839684,
                0
            ]
        }
    ],
    "materials" : [
        {
            "doubleSided" : true,
            "name" : "White",
            "pbrMetallicRoughness" : {
                "baseColorFactor" : [
                    0.800000011920929,
                    0.800000011920929,
                    0.800000011920929,
                    1
                ],
                "metallicFactor" : 0,
                "roughnessFactor" : 0.2771301567554474
            }
        }
    ],
    "meshes" : [
        {
            "name" : "Cylinder.007",
            "primitives" : [
                {
                    "attributes" : {
                        "POSITION" : 0,
                        "NORMAL" : 1,
                        "TEXCOORD_0" : 2
                    },
                    "indices" : 3,
                    "material" : 0
                }
            ]
        }
    ],
    "accessors" : [
        {
            "bufferView" : 0,
            "componentType" : 5126,
            "count" : 1802,
            "max" : [
                1,
                4.625778675079346,
                1
            ],
            "min" : [
                -1,
                -0.04807852581143379,
                -1
            ],
            "type" : "VEC3"
        },
        {
            "bufferView" : 1,
            "componentType" : 5126,
            "count" : 1802,
            "type" : "VEC3"
        },
        {
            "bufferView" : 2,
            "componentType" : 5126,
            "count" : 1802,
            "type" : "VEC2"
        },
        {
            "bufferView" : 3,
            "componentType" : 5123,
            "count" : 8040,
            "type" : "SCALAR"
        }
    ],
    "bufferViews" : [
        {
            "buffer" : 0,
            "byteLength" : 21624,
            "byteOffset" : 0
        },
        {
            "buffer" : 0,
            "byteLength" : 21624,
            "byteOffset" : 21624
        },
        {
            "buffer" : 0,
            "byteLength" : 14416,
            "byteOffset" : 43248
        },
        {
            "buffer" : 0,
            "byteLength" : 16080,
            "byteOffset" : 57664
        }
    ],
    "buffers" : [
        {
            "byteLength" : 73744,
            "uri" : "data:application/octet-stream;base64,"
        }
    ]
}
