{
    "asset" : {
        "generator" : "Khronos glTF Blender I/O v1.6.16",
        "version" : "2.0"
    },
    "scene" : 0,
    "scenes" : [
        {
            "name" : "Scene",
            "nodes" : [
                0
            ]
        }
    ],
    "nodes" : [
        {
            "mesh" : 0,
            "name" : "queen",
            "scale" : [
                0.6499999761581421,
                0.6499999761581421,
                0.6499999761581421
            ],
            "translation" : [
                0,
                0.030049076303839684,
                0
            ]
        }
    ],
    "materials" : [
        {
            "doubleSided" : true,
            "name" : "White",
            "pbrMetallicRoughness" : {
                "baseColorFactor" : [
                    0.800000011920929,
                    0.800000011920929,
                    0.800000011920929,
                    1
                ],
                "metallicFactor" : 0,
                "roughnessFactor" : 0.2771301567554474
            }
        }
    ],
    "meshes" : [
        {
            "name" : "Cylinder.006",
            "primitives" : [
                {
                    "attributes" : {
                        "POSITION" : 0,
                        "NORMAL" : 1,
                        "TEXCOORD_0" : 2
                    },
                    "indices" : 3,
                    "material" : 0
                }
            ]
        }
    ],
    "accessors" : [
        {
            "bufferView" : 0,
            "componentType" : 5126,
            "count" : 1494,
            "max" : [
                1,
                4.270521640777588,
                1
            ],
            "min" : [
                -1,
                -0.04807852581143379,
                -1
            ],
            "type" : "VEC3"
        },
        {
            "bufferView" : 1,
            "componentType" : 5126,
            "count" : 1494,
            "type" : "VEC3"
        },
        {
            "bufferView" : 2,
            "componentType" : 5126,
            "count" : 1494,
            "type" : "VEC2"
        },
        {
            "bufferView" : 3,
            "componentType" : 5123,
            "count" : 7332,
            "type" : "SCALAR"
        }
    ],
    "bufferViews" : [
        {
            "buffer" : 0,
            "byteLength" : 17928,
            "byteOffset" : 0
        },
        {
            "buffer" : 0,
            "byteLength" : 17928,
            "byteOffset" : 17928
        },
        {
            "buffer" : 0,
            "byteLength" : 11952,
            "byteOffset" : 35856
        },
        {
            "buffer" : 0,
            "byteLength" : 14664,
            "byteOffset" : 47808
        }
    ],
    "buffers" : [
        {
            "byteLength" : 62472,
            "uri" : "data:application/octet-stream;base64,"
        }
    ]
}
