{
    "asset" : {
        "generator" : "Khronos glTF Blender I/O v1.6.16",
        "version" : "2.0"
    },
    "scene" : 0,
    "scenes" : [
        {
            "name" : "Scene",
            "nodes" : [
                0
            ]
        }
    ],
    "nodes" : [
        {
            "mesh" : 0,
            "name" : "queen_black",
            "scale" : [
                0.6499999761581421,
                0.6499999761581421,
                0.6499999761581421
            ],
            "translation" : [
                0,
                0.030049076303839684,
                0
            ]
        }
    ],
    "materials" : [
        {
            "doubleSided" : true,
            "name" : "Black",
            "pbrMetallicRoughness" : {
                "baseColorFactor" : [
                    0.018848516047000885,
                    0.01769496127963066,
                    0.01345010008662939,
                    1
                ],
                "metallicFactor" : 0,
                "roughnessFactor" : 0.38550451397895813
            }
        }
    ],
    "meshes" : [
        {
            "name" : "Cylinder.006",
            "primitives" : [
                {
                    "attributes" : {
                        "POSITION" : 0,
                        "NORMAL" : 1,
                        "TEXCOORD_0" : 2
                    },
                    "indices" : 3,
                    "material" : 0
                }
            ]
        }
    ],
    "accessors" : [
        {
            "bufferView" : 0,
            "componentType" : 5126,
            "count" : 1829,
            "max" : [
                1,
                4.270521640777588,
                1
            ],
            "min" : [
                -1,
                -0.04807852581143379,
                -1
            ],
            "type" : "VEC3"
        },
        {
            "bufferView" : 1,
            "componentType" : 5126,
            "count" : 1829,
            "type" : "VEC3"
        },
        {
            "bufferView" : 2,
            "componentType" : 5126,
            "count" : 1829,
            "type" : "VEC2"
        },
        {
            "bufferView" : 3,
            "componentType" : 5123,
            "count" : 7908,
            "type" : "SCALAR"
        }
    ],
    "bufferViews" : [
        {
            "buffer" : 0,
            "byteLength" : 21948,
            "byteOffset" : 0
        },
        {
            "buffer" : 0,
            "byteLength" : 21948,
            "byteOffset" : 21948
        },
        {
            "buffer" : 0,
            "byteLength" : 14632,
            "byteOffset" : 43896
        },
        {
            "buffer" : 0,
            "byteLength" : 15816,
            "byteOffset" : 58528
        }
    ],
    "buffers" : [
        {
            "byteLength" : 74344,
            "uri" : "data:application/octet-stream;base64,"
        }
    ]
}
