{
	"asset":{
		"generator":"Khronos glTF Blender I/O v3.5.30",
		"version":"2.0"
	},
	"extensionsUsed":[
		"KHR_materials_specular",
		"KHR_materials_ior"
	],
	"scene":0,
	"scenes":[
		{
			"extras":{
				"sprytile_data":{
					"auto_reload":0,
					"world_pixels":32
				},
				"batch_export":{
					"gltf_preset":"GLTF_Preset"
				}
			},
			"name":"Scene",
			"nodes":[
				0
			]
		}
	],
	"nodes":[
		{
			"extras":{
				"collider":"cylinder"
			},
			"mesh":0,
			"name":"queen",
			"scale":[
				0.6499999761581421,
				0.6499999761581421,
				0.6499999761581421
			]
		}
	],
	"materials":[
		{
			"extensions":{
				"KHR_materials_specular":{
					"specularColorFactor":[
						2.371357614441398,
						2.371357614441398,
						2.371357614441398
					]
				},
				"KHR_materials_ior":{
					"ior":1.4500000476837158
				}
			},
			"name":"White",
			"pbrMetallicRoughness":{
				"baseColorFactor":[
					0.8000000715255737,
					0.7366549968719482,
					0.5128418803215027,
					1
				],
				"metallicFactor":0,
				"roughnessFactor":0.38550451397895813
			}
		}
	],
	"meshes":[
		{
			"name":"Cylinder.006",
			"primitives":[
				{
					"attributes":{
						"POSITION":0,
						"TEXCOORD_0":1,
						"NORMAL":2
					},
					"indices":3,
					"material":0
				}
			]
		}
	],
	"accessors":[
		{
			"bufferView":0,
			"componentType":5126,
			"count":1829,
			"max":[
				1,
				4.270521640777588,
				1
			],
			"min":[
				-1,
				-0.04807852581143379,
				-1
			],
			"type":"VEC3"
		},
		{
			"bufferView":1,
			"componentType":5126,
			"count":1829,
			"type":"VEC2"
		},
		{
			"bufferView":2,
			"componentType":5126,
			"count":1829,
			"type":"VEC3"
		},
		{
			"bufferView":3,
			"componentType":5123,
			"count":7908,
			"type":"SCALAR"
		}
	],
	"bufferViews":[
		{
			"buffer":0,
			"byteLength":21948,
			"byteOffset":0,
			"target":34962
		},
		{
			"buffer":0,
			"byteLength":14632,
			"byteOffset":21948,
			"target":34962
		},
		{
			"buffer":0,
			"byteLength":21948,
			"byteOffset":36580,
			"target":34962
		},
		{
			"buffer":0,
			"byteLength":15816,
			"byteOffset":58528,
			"target":34963
		}
	],
	"buffers":[
		{
			"byteLength":74344,
			"uri":"data:application/octet-stream;base64,"
		}
	]
}
