<?xml version="1.0" encoding="UTF-8" standalone="no"?>
<svg
   xmlns:dc="http://purl.org/dc/elements/1.1/"
   xmlns:cc="http://creativecommons.org/ns#"
   xmlns:rdf="http://www.w3.org/1999/02/22-rdf-syntax-ns#"
   xmlns:svg="http://www.w3.org/2000/svg"
   xmlns="http://www.w3.org/2000/svg"
   id="icon"
   version="1.1"
   viewBox="0 0 8.9971202 7.2646825"
   height="27.457067"
   width="34.004864">
  <defs
     id="defs2" />
  <metadata
     id="metadata5">
    <rdf:RDF>
      <cc:Work
         rdf:about="">
        <dc:format>image/svg+xml</dc:format>
        <dc:type
           rdf:resource="http://purl.org/dc/dcmitype/StillImage" />
        <dc:title></dc:title>
      </cc:Work>
    </rdf:RDF>
  </metadata>
  <g
     transform="translate(0.27231638,-0.77853706)"
     id="layer1">
    <path
       id="beak"
       d="M 6.2284557,2.0596049 8.7248041,3.1938448 6.3681114,4.2190228 Z"
       style="fill:#ffae00;fill-opacity:1;stroke:none;stroke-width:0.337116px;stroke-linecap:butt;stroke-linejoin:miter;stroke-opacity:1" />
    <path
       d="m 5.0350563,0.97881491 -3.9305095,0.0165365 c 0,0 -0.078797,0.46168799 1.0846883,1.23713369 1.1634847,0.7754456 -1.511e-4,3.115e-4 -2.16989333,5.5769205 l 6.46213783,0.032556 c 0,0 0.015985,-5.4608937 -0.3141927,-6.0218546 C 5.8371086,1.2591468 5.0350563,0.97881491 5.0350563,0.97881491 Z M 4.8712419,1.9911562 a 0.48361152,0.48361152 0 0 1 0.00723,0 A 0.48361152,0.48361152 0 0 1 5.362168,2.4748476 0.48361152,0.48361152 0 0 1 4.8784766,2.9585391 0.48361152,0.48361152 0 0 1 4.395302,2.4748476 0.48361152,0.48361152 0 0 1 4.8712419,1.9911562 Z"
       style="fill:var(--bird-fill-color);fill-opacity:1;stroke:none;stroke-width:0.4;stroke-linecap:butt;stroke-linejoin:miter;stroke-miterlimit:4;stroke-dasharray:none;stroke-opacity:1"
       id="body" />
    <path
       style="fill:none;fill-opacity:1;stroke:var(--bird-stroke-color);stroke-width:var(--bird-stroke-width);stroke-linecap:butt;stroke-linejoin:miter;stroke-miterlimit:4;stroke-dasharray:none;stroke-opacity:1"
       d="M 0.01952564,7.8092011 C 2.1892679,2.232592 3.3527527,3.0080376 2.1892679,2.232592 1.0257829,1.4571463 1.1043968,0.9951787 1.1043968,0.9951787 l 3.9306923,-0.016499 c 0,0 0.8018613,0.2804804 1.1320396,0.8414408 0.330178,0.5609609 0.3144553,6.022078 0.3144553,6.022078 z"
       id="outline" />
  </g>
</svg>
