<?xml version="1.0" encoding="UTF-8" standalone="no"?>
<svg
   xmlns:dc="http://purl.org/dc/elements/1.1/"
   xmlns:cc="http://creativecommons.org/ns#"
   xmlns:rdf="http://www.w3.org/1999/02/22-rdf-syntax-ns#"
   xmlns:svg="http://www.w3.org/2000/svg"
   xmlns="http://www.w3.org/2000/svg"
   xmlns:sodipodi="http://sodipodi.sourceforge.net/DTD/sodipodi-0.dtd"
   xmlns:inkscape="http://www.inkscape.org/namespaces/inkscape"
   inkscape:version="1.0 (4035a4fb49, 2020-05-01)"
   sodipodi:docname="left-click.svg"
   id="svg845"
   version="1.1"
   viewBox="0 0 384 512">
  <metadata
     id="metadata851">
    <rdf:RDF>
      <cc:Work
         rdf:about="">
        <dc:format>image/svg+xml</dc:format>
        <dc:type
           rdf:resource="http://purl.org/dc/dcmitype/StillImage" />
      </cc:Work>
    </rdf:RDF>
  </metadata>
  <defs
     id="defs849" />
  <sodipodi:namedview
     inkscape:current-layer="svg845"
     inkscape:window-maximized="1"
     inkscape:window-y="-9"
     inkscape:window-x="-9"
     inkscape:cy="244.83514"
     inkscape:cx="445.08897"
     inkscape:zoom="0.9169389"
     showgrid="false"
     id="namedview847"
     inkscape:window-height="1013"
     inkscape:window-width="1920"
     inkscape:pageshadow="2"
     inkscape:pageopacity="0"
     guidetolerance="10"
     gridtolerance="10"
     objecttolerance="10"
     borderopacity="1"
     bordercolor="#666666"
     pagecolor="#ffffff" />
  <!--! Font Awesome Pro 6.4.0 by @fontawesome - https://fontawesome.com License - https://fontawesome.com/license (Commercial License) Copyright 2023 Fonticons, Inc. -->
  <path
     d="M 208 0 L 208 192 L 384 192 L 384 160 C 384 71.6 312.4 0 224 0 L 208 0 z M 240 33.015625 C 240.96054 33.13932 241.91978 33.272124 242.87891 33.40625 C 243.63169 33.523251 244.58449 33.677334 245.21289 33.771484 C 246.0188 33.914285 246.98093 34.081247 247.68945 34.208984 C 253.35616 35.258864 259.02074 36.728045 264.42578 38.529297 C 272.08907 41.072693 279.6284 44.401961 286.71289 48.400391 C 289.56681 50.01736 292.40616 51.754627 295.17773 53.609375 C 295.93233 54.104442 296.81234 54.732218 297.46484 55.169922 C 310.48378 64.311897 321.76962 75.902504 330.5957 89.134766 C 341.42594 105.33046 348.40706 124.05564 350.91797 143.37109 C 351.00645 144.02428 351.08906 144.78906 351.16016 145.43359 C 351.67974 150.27114 351.88853 155.13677 351.95312 160 L 240 160 L 240 33.015625 z M 0 224 L 0 352 C 0 440.4 71.6 512 160 512 L 224 512 C 312.4 512 384 440.4 384 352 L 384 224 L 192 224 L 0 224 z M 32 256 L 352 256 L 352 322.75977 C 351.92602 333.57283 352.11579 344.38755 351.88086 355.19922 C 351.83399 358.20586 351.68495 361.25204 351.39258 364.30273 C 351.25575 365.69283 351.09384 367.22012 350.89258 368.70117 C 348.45167 387.60753 341.69104 405.9384 331.24805 421.88867 C 330.57563 422.91729 329.79844 424.06604 329.1543 424.99414 C 322.32873 434.77518 314.16544 443.6256 304.92188 451.16602 C 303.35279 452.4526 301.65005 453.77196 300.08594 454.9375 C 287.81356 464.03395 273.88864 470.88589 259.20117 475.08203 C 258.01333 475.41996 256.66655 475.77662 255.56641 476.0625 C 248.78873 477.77494 241.87126 478.93515 234.9043 479.51367 C 232.79714 479.7268 230.53038 479.76103 228.32812 479.80273 C 212.53384 480.10754 196.73559 479.95053 180.93945 479.98633 C 171.56913 479.97946 162.19389 480.10281 152.82812 479.76758 C 151.859 479.71165 150.71628 479.62637 149.85938 479.57227 C 144.67615 479.15911 139.51672 478.4467 134.41992 477.41602 C 115.89521 473.71458 98.277813 465.7214 83.181641 454.38086 C 80.690598 452.49479 78.012184 450.35386 75.585938 448.20312 C 74.590566 447.33739 73.618502 446.45081 72.603516 445.50195 C 54.742488 428.87725 41.818654 407.02423 35.886719 383.35352 C 35.384993 381.36632 34.97628 379.50911 34.564453 377.53516 C 34.151808 375.48071 33.733835 373.09673 33.40625 370.90039 C 33.327711 370.3442 33.181609 369.28385 33.105469 368.71484 C 32.348991 363.03781 32.07353 357.31087 32 351.58789 L 32 256 z "
     style="fill:#000000;stroke:#000000;stroke-opacity:1;stroke-width:1.0015748;stroke-miterlimit:4;stroke-dasharray:none"
     id="path857" />
  <path
     id="path843"
     d="M 0,192 H 176 V 0 H 160 C 71.6,0 0,71.6 0,160 Z" />
</svg>
