<?xml version="1.0" encoding="UTF-8" standalone="no"?>
<svg
   xmlns:dc="http://purl.org/dc/elements/1.1/"
   xmlns:cc="http://creativecommons.org/ns#"
   xmlns:rdf="http://www.w3.org/1999/02/22-rdf-syntax-ns#"
   xmlns:svg="http://www.w3.org/2000/svg"
   xmlns="http://www.w3.org/2000/svg"
   id="svg845"
   version="1.1"
   viewBox="0 0 384 512">
  <metadata
     id="metadata851">
    <rdf:RDF>
      <cc:Work
         rdf:about="">
        <dc:format>image/svg+xml</dc:format>
        <dc:type
           rdf:resource="http://purl.org/dc/dcmitype/StillImage" />
        <dc:title></dc:title>
      </cc:Work>
    </rdf:RDF>
  </metadata>
  <defs
     id="defs849" />
  <!--! Font Awesome Pro 6.4.0 by @fontawesome - https://fontawesome.com License - https://fontawesome.com/license (Commercial License) Copyright 2023 Fonticons, Inc. -->
  <path
     d="M 176,0 V 192 H 0 V 160 C 0,71.6 71.6,0 160,0 Z m -32,33.015625 c -0.96054,0.123695 -1.91978,0.256499 -2.87891,0.390625 -0.75278,0.117001 -1.70558,0.271084 -2.33398,0.365234 -0.80591,0.142801 -1.76804,0.309763 -2.47656,0.4375 -5.66671,1.04988 -11.33129,2.519061 -16.73633,4.320313 -7.66329,2.543396 -15.20262,5.872664 -22.28711,9.871094 -2.85392,1.616969 -5.69327,3.354236 -8.46484,5.208984 -0.7546,0.495067 -1.63461,1.122843 -2.28711,1.560547 C 73.51622,64.311897 62.23038,75.902504 53.4043,89.134766 42.57406,105.33046 35.59294,124.05564 33.08203,143.37109 c -0.08848,0.65319 -0.17109,1.41797 -0.24219,2.0625 -0.51958,4.83755 -0.72837,9.70318 -0.79296,14.56641 H 144 Z M 384,224 v 128 c 0,88.4 -71.6,160 -160,160 H 160 C 71.6,512 0,440.4 0,352 V 224 h 192 z m -32,32 H 32 v 66.75977 c 0.07398,10.81306 -0.11579,21.62778 0.11914,32.43945 0.04687,3.00664 0.19591,6.05282 0.48828,9.10351 0.13683,1.3901 0.29874,2.91739 0.5,4.39844 2.44091,18.90636 9.20154,37.23723 19.64453,53.1875 0.67242,1.02862 1.44961,2.17737 2.09375,3.10547 6.82557,9.78104 14.98886,18.63146 24.23242,26.17188 1.56909,1.28658 3.27183,2.60594 4.83594,3.77148 12.27238,9.09645 26.1973,15.94839 40.88477,20.14453 1.18784,0.33793 2.53462,0.69459 3.63476,0.98047 6.77768,1.71244 13.69515,2.87265 20.66211,3.45117 2.10716,0.21313 4.37392,0.24736 6.57618,0.28906 15.79428,0.30481 31.59253,0.1478 47.38867,0.1836 9.37032,-0.007 18.74556,0.11648 28.11133,-0.21875 0.96912,-0.0559 2.11184,-0.14121 2.96874,-0.19531 5.18323,-0.41316 10.34266,-1.12557 15.43946,-2.15625 18.52471,-3.70144 36.14211,-11.69462 51.23828,-23.03516 2.49104,-1.88607 5.16946,-4.027 7.5957,-6.17774 0.99537,-0.86573 1.96744,-1.75231 2.98242,-2.70117 17.86103,-16.6247 30.78487,-38.47772 36.7168,-62.14843 0.50173,-1.9872 0.91044,-3.84441 1.32227,-5.81836 0.41264,-2.05445 0.83061,-4.43843 1.1582,-6.63477 0.0785,-0.55619 0.22464,-1.61654 0.30078,-2.18555 0.75648,-5.67703 1.03194,-11.40397 1.10547,-17.12695 z"
     style="fill:#000000;stroke:#000000;stroke-width:1.00157;stroke-miterlimit:4;stroke-dasharray:none;stroke-opacity:1"
     id="path857" />
  <path
     id="path843"
     d="M 384,192 H 208 V 0 h 16 c 88.4,0 160,71.6 160,160 z" />
</svg>
