{
    "asset" : {
        "generator" : "Khronos glTF Blender I/O v1.6.16",
        "version" : "2.0"
    },
    "scene" : 0,
    "scenes" : [
        {
            "name" : "Scene",
            "nodes" : [
                0
            ]
        }
    ],
    "nodes" : [
        {
            "mesh" : 0,
            "name" : "Cube",
            "scale" : [
                8,
                0.5,
                8
            ]
        }
    ],
    "materials" : [
        {
            "doubleSided" : true,
            "name" : "Board",
            "pbrMetallicRoughness" : {
                "baseColorFactor" : [
                    0.4200241267681122,
                    0.1369979828596115,
                    0.04563353583216667,
                    1
                ],
                "metallicFactor" : 0,
                "roughnessFactor" : 1
            }
        },
        {
            "doubleSided" : true,
            "name" : "Spot",
            "pbrMetallicRoughness" : {
                "baseColorFactor" : [
                    0.05780242383480072,
                    0.02174798771739006,
                    0.008858966641128063,
                    1
                ],
                "metallicFactor" : 0,
                "roughnessFactor" : 1
            }
        }
    ],
    "meshes" : [
        {
            "name" : "Cube",
            "primitives" : [
                {
                    "attributes" : {
                        "POSITION" : 0,
                        "NORMAL" : 1,
                        "TEXCOORD_0" : 2
                    },
                    "indices" : 3,
                    "material" : 0
                },
                {
                    "attributes" : {
                        "POSITION" : 4,
                        "NORMAL" : 5,
                        "TEXCOORD_0" : 6
                    },
                    "indices" : 7,
                    "material" : 1
                }
            ]
        }
    ],
    "accessors" : [
        {
            "bufferView" : 0,
            "componentType" : 5126,
            "count" : 3031,
            "max" : [
                1.0000001192092896,
                2.000000238418579,
                1.0000001192092896
            ],
            "min" : [
                -1.0000001192092896,
                0,
                -1.0000001192092896
            ],
            "type" : "VEC3"
        },
        {
            "bufferView" : 1,
            "componentType" : 5126,
            "count" : 3031,
            "type" : "VEC3"
        },
        {
            "bufferView" : 2,
            "componentType" : 5126,
            "count" : 3031,
            "type" : "VEC2"
        },
        {
            "bufferView" : 3,
            "componentType" : 5123,
            "count" : 13554,
            "type" : "SCALAR"
        },
        {
            "bufferView" : 4,
            "componentType" : 5126,
            "count" : 857,
            "max" : [
                1.0000001192092896,
                2.000000238418579,
                1.0000001192092896
            ],
            "min" : [
                -1.0000001192092896,
                1.9600000381469727,
                -1.0000001192092896
            ],
            "type" : "VEC3"
        },
        {
            "bufferView" : 5,
            "componentType" : 5126,
            "count" : 857,
            "type" : "VEC3"
        },
        {
            "bufferView" : 6,
            "componentType" : 5126,
            "count" : 857,
            "type" : "VEC2"
        },
        {
            "bufferView" : 7,
            "componentType" : 5123,
            "count" : 3462,
            "type" : "SCALAR"
        }
    ],
    "bufferViews" : [
        {
            "buffer" : 0,
            "byteLength" : 36372,
            "byteOffset" : 0
        },
        {
            "buffer" : 0,
            "byteLength" : 36372,
            "byteOffset" : 36372
        },
        {
            "buffer" : 0,
            "byteLength" : 24248,
            "byteOffset" : 72744
        },
        {
            "buffer" : 0,
            "byteLength" : 27108,
            "byteOffset" : 96992
        },
        {
            "buffer" : 0,
            "byteLength" : 10284,
            "byteOffset" : 124100
        },
        {
            "buffer" : 0,
            "byteLength" : 10284,
            "byteOffset" : 134384
        },
        {
            "buffer" : 0,
            "byteLength" : 6856,
            "byteOffset" : 144668
        },
        {
            "buffer" : 0,
            "byteLength" : 6924,
            "byteOffset" : 151524
        }
    ],
    "buffers" : [
        {
            "byteLength" : 158448,
            "uri" : "data:application/octet-stream;base64,"
        }
    ]
}
