{
	"asset":{
		"generator":"Khronos glTF Blender I/O v3.5.30",
		"version":"2.0"
	},
	"scene":0,
	"scenes":[
		{
			"extras":{
				"sprytile_data":{
					"auto_reload":0,
					"world_pixels":32
				}
			},
			"name":"Scene",
			"nodes":[
				0
			]
		}
	],
	"nodes":[
		{
			"extras":{
				"collider":"cylinder"
			},
			"mesh":0,
			"name":"checker"
		}
	],
	"materials":[
		{
			"doubleSided":true,
			"name":"Checker",
			"pbrMetallicRoughness":{
				"baseColorFactor":[
					0.7177353501319885,
					0.6957554221153259,
					0.7230427861213684,
					1
				],
				"metallicFactor":0,
				"roughnessFactor":0.5580940246582031
			}
		}
	],
	"meshes":[
		{
			"name":"Cylinder",
			"primitives":[
				{
					"attributes":{
						"POSITION":0,
						"TEXCOORD_0":1,
						"NORMAL":2
					},
					"indices":3,
					"material":0
				}
			]
		}
	],
	"accessors":[
		{
			"bufferView":0,
			"componentType":5126,
			"count":229,
			"max":[
				0.800000011920929,
				0.347988098859787,
				0.800000011920929
			],
			"min":[
				-0.800000011920929,
				1.7881394143159923e-08,
				-0.800000011920929
			],
			"type":"VEC3"
		},
		{
			"bufferView":1,
			"componentType":5126,
			"count":229,
			"type":"VEC2"
		},
		{
			"bufferView":2,
			"componentType":5126,
			"count":229,
			"type":"VEC3"
		},
		{
			"bufferView":3,
			"componentType":5123,
			"count":756,
			"type":"SCALAR"
		}
	],
	"bufferViews":[
		{
			"buffer":0,
			"byteLength":2748,
			"byteOffset":0,
			"target":34962
		},
		{
			"buffer":0,
			"byteLength":1832,
			"byteOffset":2748,
			"target":34962
		},
		{
			"buffer":0,
			"byteLength":2748,
			"byteOffset":4580,
			"target":34962
		},
		{
			"buffer":0,
			"byteLength":1512,
			"byteOffset":7328,
			"target":34963
		}
	],
	"buffers":[
		{
			"byteLength":8840,
			"uri":"data:application/octet-stream;base64,"
		}
	]
}
