{
    "asset" : {
        "generator" : "Khronos glTF Blender I/O v1.6.16",
        "version" : "2.0"
    },
    "scene" : 0,
    "scenes" : [
        {
            "name" : "Scene",
            "nodes" : [
                0
            ]
        }
    ],
    "nodes" : [
        {
            "mesh" : 0,
            "name" : "Cube",
            "scale" : [
                8,
                0.5,
                8
            ]
        }
    ],
    "materials" : [
        {
            "doubleSided" : true,
            "name" : "Board",
            "pbrMetallicRoughness" : {
                "baseColorFactor" : [
                    0.4200241267681122,
                    0.1369979828596115,
                    0.04563353583216667,
                    1
                ],
                "metallicFactor" : 0,
                "roughnessFactor" : 1
            }
        },
        {
            "doubleSided" : true,
            "name" : "Spot",
            "pbrMetallicRoughness" : {
                "baseColorFactor" : [
                    0.05780242383480072,
                    0.02174798771739006,
                    0.008858966641128063,
                    1
                ],
                "metallicFactor" : 0,
                "roughnessFactor" : 1
            }
        }
    ],
    "meshes" : [
        {
            "name" : "Cube",
            "primitives" : [
                {
                    "attributes" : {
                        "POSITION" : 0,
                        "NORMAL" : 1,
                        "TEXCOORD_0" : 2
                    },
                    "indices" : 3,
                    "material" : 0
                },
                {
                    "attributes" : {
                        "POSITION" : 4,
                        "NORMAL" : 5,
                        "TEXCOORD_0" : 6
                    },
                    "indices" : 7,
                    "material" : 1
                }
            ]
        }
    ],
    "accessors" : [
        {
            "bufferView" : 0,
            "componentType" : 5126,
            "count" : 3047,
            "max" : [
                1.0000001192092896,
                1.0000001192092896,
                1.0000001192092896
            ],
            "min" : [
                -1.0000001192092896,
                -1.0000001192092896,
                -1.0000001192092896
            ],
            "type" : "VEC3"
        },
        {
            "bufferView" : 1,
            "componentType" : 5126,
            "count" : 3047,
            "type" : "VEC3"
        },
        {
            "bufferView" : 2,
            "componentType" : 5126,
            "count" : 3047,
            "type" : "VEC2"
        },
        {
            "bufferView" : 3,
            "componentType" : 5123,
            "count" : 13554,
            "type" : "SCALAR"
        },
        {
            "bufferView" : 4,
            "componentType" : 5126,
            "count" : 855,
            "max" : [
                1.0000001192092896,
                1.0000001192092896,
                1.0000001192092896
            ],
            "min" : [
                -1.0000001192092896,
                0.9599999785423279,
                -1.0000001192092896
            ],
            "type" : "VEC3"
        },
        {
            "bufferView" : 5,
            "componentType" : 5126,
            "count" : 855,
            "type" : "VEC3"
        },
        {
            "bufferView" : 6,
            "componentType" : 5126,
            "count" : 855,
            "type" : "VEC2"
        },
        {
            "bufferView" : 7,
            "componentType" : 5123,
            "count" : 3462,
            "type" : "SCALAR"
        }
    ],
    "bufferViews" : [
        {
            "buffer" : 0,
            "byteLength" : 36564,
            "byteOffset" : 0
        },
        {
            "buffer" : 0,
            "byteLength" : 36564,
            "byteOffset" : 36564
        },
        {
            "buffer" : 0,
            "byteLength" : 24376,
            "byteOffset" : 73128
        },
        {
            "buffer" : 0,
            "byteLength" : 27108,
            "byteOffset" : 97504
        },
        {
            "buffer" : 0,
            "byteLength" : 10260,
            "byteOffset" : 124612
        },
        {
            "buffer" : 0,
            "byteLength" : 10260,
            "byteOffset" : 134872
        },
        {
            "buffer" : 0,
            "byteLength" : 6840,
            "byteOffset" : 145132
        },
        {
            "buffer" : 0,
            "byteLength" : 6924,
            "byteOffset" : 151972
        }
    ],
    "buffers" : [
        {
            "byteLength" : 158896,
            "uri" : "data:application/octet-stream;base64,"
        }
    ]
}
