{
	"asset":{
		"generator":"Khronos glTF Blender I/O v3.5.30",
		"version":"2.0"
	},
	"scene":0,
	"scenes":[
		{
			"name":"Scene",
			"nodes":[
				0
			]
		}
	],
	"nodes":[
		{
			"mesh":0,
			"name":"Checkerboard",
			"scale":[
				8,
				0.5,
				8
			]
		}
	],
	"materials":[
		{
			"name":"Board",
			"pbrMetallicRoughness":{
				"baseColorFactor":[
					0.4200241267681122,
					0.1369979828596115,
					0.04563353583216667,
					1
				],
				"metallicFactor":0,
				"roughnessFactor":1
			}
		},
		{
			"name":"Spot",
			"pbrMetallicRoughness":{
				"baseColorFactor":[
					0.05780242383480072,
					0.02174798771739006,
					0.008858966641128063,
					1
				],
				"metallicFactor":0,
				"roughnessFactor":1
			}
		}
	],
	"meshes":[
		{
			"name":"Cube",
			"primitives":[
				{
					"attributes":{
						"POSITION":0,
						"TEXCOORD_0":1,
						"NORMAL":2
					},
					"indices":3,
					"material":0
				},
				{
					"attributes":{
						"POSITION":4,
						"TEXCOORD_0":5,
						"NORMAL":6
					},
					"indices":7,
					"material":1
				}
			]
		}
	],
	"accessors":[
		{
			"bufferView":0,
			"componentType":5126,
			"count":3028,
			"max":[
				1.0000001192092896,
				2.000000238418579,
				1.0000001192092896
			],
			"min":[
				-1.0000001192092896,
				0,
				-1.0000001192092896
			],
			"type":"VEC3"
		},
		{
			"bufferView":1,
			"componentType":5126,
			"count":3028,
			"type":"VEC2"
		},
		{
			"bufferView":2,
			"componentType":5126,
			"count":3028,
			"type":"VEC3"
		},
		{
			"bufferView":3,
			"componentType":5123,
			"count":13554,
			"type":"SCALAR"
		},
		{
			"bufferView":4,
			"componentType":5126,
			"count":855,
			"max":[
				1.0000001192092896,
				2.000000238418579,
				1.0000001192092896
			],
			"min":[
				-1.0000001192092896,
				1.9600000381469727,
				-1.0000001192092896
			],
			"type":"VEC3"
		},
		{
			"bufferView":5,
			"componentType":5126,
			"count":855,
			"type":"VEC2"
		},
		{
			"bufferView":6,
			"componentType":5126,
			"count":855,
			"type":"VEC3"
		},
		{
			"bufferView":7,
			"componentType":5123,
			"count":3462,
			"type":"SCALAR"
		}
	],
	"bufferViews":[
		{
			"buffer":0,
			"byteLength":36336,
			"byteOffset":0,
			"target":34962
		},
		{
			"buffer":0,
			"byteLength":24224,
			"byteOffset":36336,
			"target":34962
		},
		{
			"buffer":0,
			"byteLength":36336,
			"byteOffset":60560,
			"target":34962
		},
		{
			"buffer":0,
			"byteLength":27108,
			"byteOffset":96896,
			"target":34963
		},
		{
			"buffer":0,
			"byteLength":10260,
			"byteOffset":124004,
			"target":34962
		},
		{
			"buffer":0,
			"byteLength":6840,
			"byteOffset":134264,
			"target":34962
		},
		{
			"buffer":0,
			"byteLength":10260,
			"byteOffset":141104,
			"target":34962
		},
		{
			"buffer":0,
			"byteLength":6924,
			"byteOffset":151364,
			"target":34963
		}
	],
	"buffers":[
		{
			"byteLength":158288,
			"uri":"data:application/octet-stream;base64,"
		}
	]
}
